# xmcd
#
# Track frame offsets: 
#        150
#        15053
#        31653
#        46645
#        64055
#        81780
#        99045
#        114802
#        131542
#        148340
#        165555
#        184352
#
# Disc length: 2666 seconds
#
# Revision: 0
# Processed by: cddbd v1.4PL0 Copyright (c) Steve Scherf et al.
# Submitted via: ExactAudioCopy v0.95a3
#
DISCID=850a680c
DTITLE=Richard  Schneider - No Tear left Uncried
DYEAR=2003
DGENRE=Country
TTITLE0=She`s Gone
TTITLE1=I`m Not Listening
TTITLE2=Less Then Some
TTITLE3=I Surrender
TTITLE4=Thousand Grains of Sand
TTITLE5=No tear Left Uncried
TTITLE6=Loved By You 
TTITLE7=Holding On
TTITLE8=How Do You Know
TTITLE9=It Was You All Along
TTITLE10=Strenght To Love
TTITLE11=Loved By You (steeldown mix)
EXTD=
EXTT0=
EXTT1=
EXTT2=
EXTT3=
EXTT4=
EXTT5=
EXTT6=
EXTT7=
EXTT8=
EXTT9=
EXTT10=
EXTT11=
PLAYORDER=
